<svg width="26" height="26" viewBox="0 0 26 26" fill="none" xmlns="http://www.w3.org/2000/svg">
<g id="discord" clip-path="url(#clip0_351_893)">
<rect width="25" height="25" transform="translate(0.5 0.972656)" fill="#1A1021"/>
<path id="Vector" d="M16.575 12.8477C16.575 13.6102 16.0125 14.2352 15.3 14.2352C14.6 14.2352 14.025 13.6102 14.025 12.8477C14.025 12.0852 14.5875 11.4602 15.3 11.4602C16.0125 11.4602 16.575 12.0852 16.575 12.8477ZM10.7375 11.4602C10.025 11.4602 9.4625 12.0852 9.4625 12.8477C9.4625 13.6102 10.0375 14.2352 10.7375 14.2352C11.45 14.2352 12.0125 13.6102 12.0125 12.8477C12.025 12.0852 11.45 11.4602 10.7375 11.4602ZM23.9375 3.54766V25.9727C20.7884 23.1897 21.7955 24.1109 18.1375 20.7102L18.8 23.0227H4.625C3.2125 23.0227 2.0625 21.8727 2.0625 20.4477V3.54766C2.0625 2.12266 3.2125 0.972656 4.625 0.972656H21.375C22.7875 0.972656 23.9375 2.12266 23.9375 3.54766ZM20.375 15.3977C20.375 11.3727 18.575 8.11016 18.575 8.11016C16.775 6.76016 15.0625 6.79766 15.0625 6.79766L14.8875 6.99766C17.0125 7.64766 18 8.58516 18 8.58516C15.0307 6.95776 11.5428 6.95747 8.6625 8.22266C8.2 8.43516 7.925 8.58516 7.925 8.58516C7.925 8.58516 8.9625 7.59766 11.2125 6.94766L11.0875 6.79766C11.0875 6.79766 9.375 6.76016 7.575 8.11016C7.575 8.11016 5.775 11.3727 5.775 15.3977C5.775 15.3977 6.825 17.2102 9.5875 17.2977C9.5875 17.2977 10.05 16.7352 10.425 16.2602C8.8375 15.7852 8.2375 14.7852 8.2375 14.7852C8.42139 14.9139 8.72461 15.0807 8.75 15.0977C10.8599 16.2792 13.8568 16.6663 16.55 15.5352C16.9875 15.3727 17.475 15.1352 17.9875 14.7977C17.9875 14.7977 17.3625 15.8227 15.725 16.2852C16.1 16.7602 16.55 17.2977 16.55 17.2977C19.3125 17.2102 20.375 15.3977 20.375 15.3977Z" fill="#ABABAB"/>
</g>
<defs>
<clipPath id="clip0_351_893">
<rect width="25" height="25" fill="white" transform="translate(0.5 0.972656)"/>
</clipPath>
</defs>
</svg>
