<svg width="26" height="26" viewBox="0 0 26 26" fill="none" xmlns="http://www.w3.org/2000/svg">
<g id="instagram">
<rect width="25" height="25" transform="translate(0.5 0.972656)" fill="#1A1021"/>
<path id="Vector" d="M13.0046 7.85718C9.89917 7.85718 7.39429 10.3621 7.39429 13.4675C7.39429 16.573 9.89917 19.0779 13.0046 19.0779C16.1101 19.0779 18.615 16.573 18.615 13.4675C18.615 10.3621 16.1101 7.85718 13.0046 7.85718ZM13.0046 17.115C10.9978 17.115 9.35718 15.4792 9.35718 13.4675C9.35718 11.4558 10.9929 9.82007 13.0046 9.82007C15.0164 9.82007 16.6521 11.4558 16.6521 13.4675C16.6521 15.4792 15.0115 17.115 13.0046 17.115ZM20.1531 7.62769C20.1531 8.35522 19.5671 8.93628 18.8445 8.93628C18.1169 8.93628 17.5359 8.35034 17.5359 7.62769C17.5359 6.90503 18.1218 6.31909 18.8445 6.31909C19.5671 6.31909 20.1531 6.90503 20.1531 7.62769ZM23.8689 8.95581C23.7859 7.20288 23.3855 5.65015 22.1013 4.37085C20.822 3.09155 19.2693 2.69116 17.5164 2.60327C15.7097 2.50073 10.2947 2.50073 8.48804 2.60327C6.73999 2.68628 5.18726 3.08667 3.90308 4.36597C2.6189 5.64526 2.22339 7.198 2.1355 8.95093C2.03296 10.7576 2.03296 16.1726 2.1355 17.9792C2.21851 19.7322 2.6189 21.2849 3.90308 22.5642C5.18726 23.8435 6.73511 24.2439 8.48804 24.3318C10.2947 24.4343 15.7097 24.4343 17.5164 24.3318C19.2693 24.2488 20.822 23.8484 22.1013 22.5642C23.3806 21.2849 23.781 19.7322 23.8689 17.9792C23.9714 16.1726 23.9714 10.7625 23.8689 8.95581ZM21.5349 19.9177C21.1541 20.8748 20.4167 21.6121 19.4548 21.9978C18.0144 22.5691 14.5964 22.4373 13.0046 22.4373C11.4128 22.4373 7.98999 22.5642 6.55444 21.9978C5.59741 21.6169 4.86011 20.8796 4.47437 19.9177C3.90308 18.4773 4.03491 15.0593 4.03491 13.4675C4.03491 11.8757 3.90796 8.45288 4.47437 7.01733C4.85522 6.0603 5.59253 5.323 6.55444 4.93726C7.99487 4.36597 11.4128 4.4978 13.0046 4.4978C14.5964 4.4978 18.0193 4.37085 19.4548 4.93726C20.4119 5.31811 21.1492 6.05542 21.5349 7.01733C22.1062 8.45776 21.9744 11.8757 21.9744 13.4675C21.9744 15.0593 22.1062 18.4822 21.5349 19.9177Z" fill="#ABABAB"/>
</g>
</svg>
