<svg width="26" height="26" viewBox="0 0 26 26" fill="none" xmlns="http://www.w3.org/2000/svg">
<g id="youtube">
<rect width="25" height="25" transform="translate(0.5 0.972656)" fill="#1A1021"/>
<path id="Vector" d="M24.3564 7.74693C24.0838 6.72045 23.2805 5.91203 22.2607 5.63768C20.4122 5.13916 12.9998 5.13916 12.9998 5.13916C12.9998 5.13916 5.58749 5.13916 3.73892 5.63768C2.71909 5.91208 1.91587 6.72045 1.64326 7.74693C1.14795 9.60748 1.14795 13.4893 1.14795 13.4893C1.14795 13.4893 1.14795 17.3712 1.64326 19.2317C1.91587 20.2582 2.71909 21.033 3.73892 21.3073C5.58749 21.8058 12.9998 21.8058 12.9998 21.8058C12.9998 21.8058 20.4121 21.8058 22.2607 21.3073C23.2805 21.033 24.0838 20.2582 24.3564 19.2317C24.8517 17.3712 24.8517 13.4893 24.8517 13.4893C24.8517 13.4893 24.8517 9.60748 24.3564 7.74693ZM10.5756 17.0138V9.9649L16.7708 13.4894L10.5756 17.0138Z" fill="#ABABAB"/>
</g>
</svg>
